<svg id="visual" viewBox="0 0 450 900" width="450" height="900" xmlns="http://www.w3.org/2000/svg" xmlns:xlink="http://www.w3.org/1999/xlink" version="1.1"><rect x="0" y="0" width="450" height="900" fill="#F7BEC0"></rect><defs><linearGradient id="grad1_0" x1="0%" y1="100%" x2="100%" y2="0%"><stop offset="30%" stop-color="#f7bec0" stop-opacity="1"></stop><stop offset="70%" stop-color="#f7bec0" stop-opacity="1"></stop></linearGradient></defs><defs><linearGradient id="grad2_0" x1="0%" y1="100%" x2="100%" y2="0%"><stop offset="30%" stop-color="#f7bec0" stop-opacity="1"></stop><stop offset="70%" stop-color="#f7bec0" stop-opacity="1"></stop></linearGradient></defs><g transform="translate(450, 900)"><path d="M-337.5 0C-328.3 -41.7 -319.1 -83.4 -304.9 -126.3C-290.7 -169.2 -271.4 -213.4 -238.6 -238.6C-205.9 -263.9 -159.5 -270.3 -117.5 -283.6C-75.4 -297 -37.7 -317.2 0 -337.5L0 0Z" fill="#E7625F"></path></g><g transform="translate(0, 0)"><path d="M337.5 0C336.9 48.4 336.3 96.8 311.8 129.2C287.3 161.6 238.9 178 205.8 205.8C172.6 233.6 154.6 272.7 122.8 296.6C91.1 320.4 45.5 329 0 337.5L0 0Z" fill="#E7625F"></path></g></svg>