<svg id="visual" viewBox="0 0 450 900" width="450" height="900" xmlns="http://www.w3.org/2000/svg" xmlns:xlink="http://www.w3.org/1999/xlink" version="1.1"><rect x="0" y="0" width="450" height="900" fill="#071952"></rect><path d="M0 591L18.8 577.8C37.7 564.7 75.3 538.3 112.8 529.7C150.3 521 187.7 530 225.2 552C262.7 574 300.3 609 337.8 624.3C375.3 639.7 412.7 635.3 431.3 633.2L450 631L450 0L431.3 0C412.7 0 375.3 0 337.8 0C300.3 0 262.7 0 225.2 0C187.7 0 150.3 0 112.8 0C75.3 0 37.7 0 18.8 0L0 0Z" fill="#97feed"></path><path d="M0 492L18.8 475C37.7 458 75.3 424 112.8 425.2C150.3 426.3 187.7 462.7 225.2 479C262.7 495.3 300.3 491.7 337.8 491.7C375.3 491.7 412.7 495.3 431.3 497.2L450 499L450 0L431.3 0C412.7 0 375.3 0 337.8 0C300.3 0 262.7 0 225.2 0C187.7 0 150.3 0 112.8 0C75.3 0 37.7 0 18.8 0L0 0Z" fill="#69c9c1"></path><path d="M0 255L18.8 251.3C37.7 247.7 75.3 240.3 112.8 255.5C150.3 270.7 187.7 308.3 225.2 324.3C262.7 340.3 300.3 334.7 337.8 325.7C375.3 316.7 412.7 304.3 431.3 298.2L450 292L450 0L431.3 0C412.7 0 375.3 0 337.8 0C300.3 0 262.7 0 225.2 0C187.7 0 150.3 0 112.8 0C75.3 0 37.7 0 18.8 0L0 0Z" fill="#3d9695"></path><path d="M0 129L18.8 123.8C37.7 118.7 75.3 108.3 112.8 106.8C150.3 105.3 187.7 112.7 225.2 128.2C262.7 143.7 300.3 167.3 337.8 184.7C375.3 202 412.7 213 431.3 218.5L450 224L450 0L431.3 0C412.7 0 375.3 0 337.8 0C300.3 0 262.7 0 225.2 0C187.7 0 150.3 0 112.8 0C75.3 0 37.7 0 18.8 0L0 0Z" fill="#0b666a"></path></svg>