<?xml version="1.0" encoding="UTF-8" standalone="no"?><!-- Generator: Gravit.io --><svg xmlns="http://www.w3.org/2000/svg" xmlns:xlink="http://www.w3.org/1999/xlink" style="isolation:isolate" viewBox="0 0 1000 1000" width="1000pt" height="1000pt"><defs><clipPath id="_clipPath_pHacmE2wHSUINrnOBooQNNHp80gEGAyP"><rect width="1000" height="1000"/></clipPath></defs><g clip-path="url(#_clipPath_pHacmE2wHSUINrnOBooQNNHp80gEGAyP)"><path d=" M 100.127 510.184 C 100.043 506.8 100 503.405 100 500 L 100 500 L 100 500 L 100 500 L 100 500 L 100 500 C 100 279.234 279.234 100 500 100 C 720.766 100 900 279.234 900 500 C 900 666.04 798.613 808.587 654.424 869.056 L 598.33 648.321 C 618.509 637.159 629.474 613.414 623.531 590.027 L 605.177 517.802 L 605.177 517.802 L 605.177 517.802 L 603.76 512.228 L 603.229 510.138 L 603.229 510.138 L 576.696 405.728 C 574.412 396.741 567.78 390.659 561.896 392.154 L 561.896 392.154 C 556.012 393.65 553.089 402.16 555.373 411.146 L 581.906 515.557 L 570.6 518.43 L 544.066 414.02 C 541.783 405.033 535.151 398.951 529.267 400.446 L 529.267 400.446 C 523.383 401.942 520.459 410.452 522.743 419.438 L 549.277 523.849 L 549.277 523.849 L 537.971 526.722 L 511.437 422.312 C 509.153 413.325 502.522 407.243 496.638 408.738 L 496.638 408.738 C 490.753 410.234 487.83 418.744 490.114 427.73 L 516.648 532.141 L 516.648 532.141 L 505.342 535.014 L 505.342 535.014 L 484.018 540.433 L 484.018 540.433 L 484.049 540.554 L 504.32 620.322 C 510.264 643.709 531.235 659.338 554.295 659.512 L 554.295 659.512 L 554.295 659.512 L 611.408 884.253 C 576.038 894.505 538.656 900 500 900 C 300.539 900 134.981 753.691 104.901 562.627 C 110.19 563.225 115.747 562.288 120.875 559.626 L 451.044 388.215 C 451.481 387.988 451.91 387.752 452.336 387.513 C 480.862 402.82 529.391 398.939 575.887 374.8 L 582.723 371.251 C 643.587 339.653 678.065 285.232 659.669 249.799 L 659.669 249.799 L 659.669 249.799 C 641.274 214.365 576.925 211.251 516.062 242.849 L 509.226 246.398 C 462.73 270.537 431.632 307.995 427.739 340.134 C 427.298 340.345 426.858 340.559 426.421 340.786 L 100.127 510.184 Z  M 464.008 417.03 L 464.008 417.03 C 469.893 415.535 476.469 421.399 478.684 430.118 L 505.342 535.014 L 505.372 535.135 L 484.049 540.554 L 484.049 540.554 L 457.361 435.537 C 455.146 426.818 458.124 418.525 464.008 417.03 L 464.008 417.03 L 464.008 417.03 L 464.008 417.03 L 464.008 417.03 L 464.008 417.03 L 464.008 417.03 Z " fill-rule="evenodd" fill="rgb(4,15,45)"/></g></svg>