<?xml version="1.0" encoding="UTF-8" standalone="no"?><!-- Generator: Gravit.io --><svg xmlns="http://www.w3.org/2000/svg" xmlns:xlink="http://www.w3.org/1999/xlink" style="isolation:isolate" viewBox="0 0 1000 1000" width="1000pt" height="1000pt"><defs><clipPath id="_clipPath_swdbNIf6VMAgINXX6eOVk8deLhXBwY8I"><rect width="1000" height="1000"/></clipPath></defs><g clip-path="url(#_clipPath_swdbNIf6VMAgINXX6eOVk8deLhXBwY8I)"><g><path d=" M 191.342 359.046 L 201.382 359.046 L 201.382 461.342 L 201.382 461.342 Q 194.689 467.163 183.484 471.091 L 183.484 471.091 L 183.484 471.091 Q 172.28 475.02 156.273 475.02 L 156.273 475.02 L 156.273 475.02 Q 140.267 475.02 129.062 467.89 L 129.062 467.89 L 129.062 467.89 Q 116.403 460.178 116.403 446.063 L 116.403 446.063 L 116.403 352.353 L 82.498 352.353 L 82.498 352.353 Q 72.021 337.365 72.021 319.612 L 72.021 319.612 L 72.021 319.612 Q 72.021 307.535 75.877 298.586 L 75.877 298.586 L 75.877 298.586 Q 79.733 289.637 85.408 284.689 L 85.408 284.689 L 235.869 284.689 L 235.869 284.689 Q 240.089 291.237 242.853 300.55 L 242.853 300.55 L 242.853 300.55 Q 245.618 309.863 245.618 319.03 L 245.618 319.03 L 245.618 319.03 Q 245.618 336.201 238.052 344.277 L 238.052 344.277 L 238.052 344.277 Q 230.485 352.353 217.68 352.353 L 217.68 352.353 L 175.044 352.353 L 175.044 352.353 Q 174.608 353.371 174.608 354.536 L 174.608 354.536 L 174.608 354.536 Q 174.608 357.155 177.664 358.028 L 177.664 358.028 L 177.664 358.028 Q 180.865 359.046 191.342 359.046 L 191.342 359.046 L 191.342 359.046 Z  M 324.195 376.799 L 324.195 376.799 Q 325.359 377.963 327.833 377.963 L 327.833 377.963 L 327.833 377.963 Q 330.307 377.963 332.053 376.945 L 332.053 376.945 L 332.053 376.945 Q 328.27 354.827 326.96 350.752 L 326.96 350.752 L 326.96 350.752 Q 325.359 346.532 322.158 346.532 L 322.158 346.532 L 322.158 346.532 Q 320.703 346.532 318.666 347.405 L 318.666 347.405 L 324.195 376.799 L 324.195 376.799 Z  M 295.384 420.453 L 295.384 420.453 L 295.384 420.453 Q 293.928 422.49 293.928 424.236 L 293.928 424.236 L 293.928 424.236 Q 293.928 428.456 301.859 431.294 L 301.859 431.294 L 301.859 431.294 Q 309.789 434.131 321.139 434.859 L 321.139 434.859 L 321.139 434.859 Q 323.031 455.813 325.214 458.723 L 325.214 458.723 L 325.214 458.723 Q 322.449 464.107 309.935 469.564 L 309.935 469.564 L 309.935 469.564 Q 297.421 475.02 281.705 475.02 L 281.705 475.02 L 281.705 475.02 Q 260.897 475.02 246.055 466.071 L 246.055 466.071 L 246.055 466.071 Q 231.212 457.122 231.212 443.007 L 231.212 443.007 L 231.212 443.007 Q 231.212 439.224 231.94 436.314 L 231.94 436.314 L 262.934 297.786 L 262.934 297.786 Q 274.575 290.364 290.727 286.145 L 290.727 286.145 L 290.727 286.145 Q 306.879 281.925 324.341 281.925 L 324.341 281.925 L 324.341 281.925 Q 349.369 281.925 367.121 290.364 L 367.121 290.364 L 367.121 290.364 Q 387.348 299.968 391.713 318.157 L 391.713 318.157 L 424.89 455.376 L 424.89 455.376 Q 409.757 475.02 375.561 475.02 L 375.561 475.02 L 375.561 475.02 Q 358.973 475.02 347.477 469.054 L 347.477 469.054 L 347.477 469.054 Q 335.982 463.088 334.09 452.029 L 334.09 452.029 L 330.889 434.277 L 330.889 434.277 Q 339.62 434.131 347.768 430.93 L 347.768 430.93 L 347.768 430.93 Q 355.917 427.729 355.917 424.236 L 355.917 424.236 L 355.917 424.236 Q 355.917 421.908 354.025 420.453 L 354.025 420.453 L 354.025 420.453 Q 348.496 424.382 340.493 426.419 L 340.493 426.419 L 340.493 426.419 Q 332.489 428.456 325.65 428.456 L 325.65 428.456 L 325.65 428.456 Q 306.006 428.456 295.384 420.453 Z  M 506.959 419.434 L 506.959 419.434 L 506.959 419.434 Q 511.761 418.561 511.761 414.56 L 511.761 414.56 L 511.761 414.56 Q 511.761 410.558 509.215 405.538 L 509.215 405.538 L 509.215 405.538 Q 506.668 400.518 501.721 396.007 L 501.721 396.007 L 501.721 396.007 Q 488.77 384.366 466.652 384.366 L 466.652 384.366 L 466.652 384.366 Q 455.739 384.366 446.281 388.004 L 446.281 388.004 L 446.281 388.004 Q 436.24 382.911 430.274 371.852 L 430.274 371.852 L 430.274 371.852 Q 424.308 360.793 424.308 347.988 L 424.308 347.988 L 424.308 347.988 Q 424.308 314.52 452.247 296.33 L 452.247 296.33 L 452.247 296.33 Q 476.256 280.761 511.47 280.761 L 511.47 280.761 L 511.47 280.761 Q 537.663 280.761 555.561 286.363 L 555.561 286.363 L 555.561 286.363 Q 573.459 291.965 584.809 300.696 L 584.809 300.696 L 584.809 300.696 Q 588.156 310.3 588.156 320.631 L 588.156 320.631 L 588.156 320.631 Q 588.156 330.962 585.391 339.402 L 585.391 339.402 L 585.391 339.402 Q 582.626 347.842 577.388 352.935 L 577.388 352.935 L 577.388 352.935 Q 572.44 349.297 559.49 345.514 L 559.49 345.514 L 559.49 345.514 Q 546.539 341.73 535.916 341.73 L 535.916 341.73 L 535.916 341.73 Q 525.294 341.73 521.729 343.04 L 521.729 343.04 L 521.729 343.04 Q 518.164 344.35 518.164 347.114 L 518.164 347.114 L 518.164 347.114 Q 518.164 348.424 518.6 349.588 L 518.6 349.588 L 518.6 349.588 Q 523.693 348.279 531.697 348.279 L 531.697 348.279 L 531.697 348.279 Q 560.072 348.279 577.97 361.666 L 577.97 361.666 L 577.97 361.666 Q 599.069 377.672 599.069 409.685 L 599.069 409.685 L 599.069 409.685 Q 599.069 437.914 576.224 456.54 L 576.224 456.54 L 576.224 456.54 Q 551.486 476.475 509.724 476.475 L 509.724 476.475 L 509.724 476.475 Q 486.733 476.475 469.854 473.056 L 469.854 473.056 L 469.854 473.056 Q 452.974 469.636 436.968 461.051 L 436.968 461.051 L 436.968 461.051 Q 426.054 445.19 426.054 428.82 L 426.054 428.82 L 426.054 428.82 Q 426.054 412.45 437.259 401.682 L 437.259 401.682 L 437.259 401.682 Q 448.463 390.914 464.833 390.914 L 464.833 390.914 L 464.833 390.914 Q 481.204 390.914 491.608 397.607 L 491.608 397.607 L 491.608 397.607 Q 502.012 404.301 506.959 419.434 Z  M 713.879 359.046 L 723.919 359.046 L 723.919 461.342 L 723.919 461.342 Q 717.226 467.163 706.021 471.091 L 706.021 471.091 L 706.021 471.091 Q 694.817 475.02 678.81 475.02 L 678.81 475.02 L 678.81 475.02 Q 662.804 475.02 651.599 467.89 L 651.599 467.89 L 651.599 467.89 Q 638.94 460.178 638.94 446.063 L 638.94 446.063 L 638.94 352.353 L 605.035 352.353 L 605.035 352.353 Q 594.558 337.365 594.558 319.612 L 594.558 319.612 L 594.558 319.612 Q 594.558 307.535 598.414 298.586 L 598.414 298.586 L 598.414 298.586 Q 602.27 289.637 607.945 284.689 L 607.945 284.689 L 758.406 284.689 L 758.406 284.689 Q 762.626 291.237 765.39 300.55 L 765.39 300.55 L 765.39 300.55 Q 768.155 309.863 768.155 319.03 L 768.155 319.03 L 768.155 319.03 Q 768.155 336.201 760.588 344.277 L 760.588 344.277 L 760.588 344.277 Q 753.022 352.353 740.217 352.353 L 740.217 352.353 L 697.581 352.353 L 697.581 352.353 Q 697.145 353.371 697.145 354.536 L 697.145 354.536 L 697.145 354.536 Q 697.145 357.155 700.201 358.028 L 700.201 358.028 L 700.201 358.028 Q 703.402 359.046 713.879 359.046 L 713.879 359.046 L 713.879 359.046 Z  M 839.311 284.689 L 839.311 284.689 L 923.272 284.689 L 923.272 284.689 Q 927.492 291.674 929.529 299.895 L 929.529 299.895 L 929.529 299.895 Q 931.566 308.117 931.566 314.665 L 931.566 314.665 L 931.566 314.665 Q 931.566 329.362 925.818 336.783 L 925.818 336.783 L 925.818 336.783 Q 920.071 344.204 909.739 344.204 L 909.739 344.204 L 851.097 344.204 L 851.097 344.204 Q 845.713 344.204 845.713 348.424 L 845.713 348.424 L 845.713 349.588 L 845.713 349.588 Q 845.713 350.461 846.005 350.752 L 846.005 350.752 L 915.56 350.752 L 915.56 350.752 Q 918.179 355.263 920.071 362.102 L 920.071 362.102 L 920.071 362.102 Q 921.817 369.523 921.817 375.344 L 921.817 375.344 L 921.817 375.344 Q 921.817 392.66 915.414 402.409 L 915.414 402.409 L 883.838 402.409 L 883.838 402.409 Q 861.72 402.409 853.862 404.083 L 853.862 404.083 L 853.862 404.083 Q 846.005 405.756 844.113 406.92 L 844.113 406.92 L 844.113 406.92 Q 842.221 408.23 842.221 410.267 L 842.221 410.267 L 842.221 410.267 Q 842.221 412.304 844.258 413.468 L 844.258 413.468 L 844.258 413.468 Q 851.825 410.995 860.119 409.976 L 860.119 409.976 L 860.119 409.976 Q 871.033 408.957 883.838 408.957 L 883.838 408.957 L 924.727 408.957 L 924.727 408.957 Q 933.603 421.472 933.603 439.079 L 933.603 439.079 L 933.603 439.079 Q 933.603 448.973 931.13 457.995 L 931.13 457.995 L 931.13 457.995 Q 928.656 467.017 923.708 472.547 L 923.708 472.547 L 814.719 472.547 L 814.719 472.547 Q 796.676 472.547 785.762 463.816 L 785.762 463.816 L 785.762 463.816 Q 773.83 454.503 773.83 436.459 L 773.83 436.459 L 773.83 298.077 L 773.83 298.077 Q 773.83 291.092 789.837 287.891 L 789.837 287.891 L 789.837 287.891 Q 805.843 284.689 839.311 284.689 Z " fill="rgb(199,243,197)"/><path d=" M 499.905 583.33 L 499.905 570.671 L 499.905 570.671 Q 499.905 556.119 498.595 550.663 L 498.595 550.663 L 498.595 550.663 Q 497.286 545.206 493.793 545.206 L 493.793 545.206 L 493.793 545.206 Q 491.611 545.206 489.865 546.661 L 489.865 546.661 L 489.865 546.661 Q 490.156 549.28 490.738 553.646 L 490.738 553.646 L 490.738 553.646 Q 491.32 558.011 491.32 572.271 L 491.32 572.271 L 491.32 581.73 L 491.32 581.73 Q 491.32 591.625 490.883 596.136 L 490.883 596.136 L 490.883 596.136 Q 490.447 600.646 490.156 603.848 L 490.156 603.848 L 490.156 603.848 Q 490.01 605.594 489.865 607.34 L 489.865 607.34 L 489.865 607.34 Q 491.611 608.795 493.793 608.795 L 493.793 608.795 L 493.793 608.795 Q 497.286 608.795 498.595 603.338 L 498.595 603.338 L 498.595 603.338 Q 499.905 597.882 499.905 583.33 L 499.905 583.33 L 499.905 583.33 Z  M 482.443 671.22 L 445.629 671.22 L 445.629 671.22 Q 429.477 671.22 420.673 662.635 L 420.673 662.635 L 420.673 662.635 Q 411.87 654.05 411.87 636.734 L 411.87 636.734 L 411.87 505.772 L 411.87 505.772 Q 411.87 494.713 434.06 487.074 L 434.06 487.074 L 434.06 487.074 Q 456.251 479.434 483.607 479.434 L 483.607 479.434 L 483.607 479.434 Q 531.772 479.434 558.838 502.716 L 558.838 502.716 L 558.838 502.716 Q 587.94 527.744 587.94 577.364 L 587.94 577.364 L 587.94 577.364 Q 587.94 622.037 559.783 646.629 L 559.783 646.629 L 559.783 646.629 Q 531.627 671.22 482.443 671.22 L 482.443 671.22 L 482.443 671.22 Z  M 683.833 583.33 L 683.833 570.671 L 683.833 570.671 Q 683.833 556.119 682.524 550.663 L 682.524 550.663 L 682.524 550.663 Q 681.214 545.206 677.722 545.206 L 677.722 545.206 L 677.722 545.206 Q 675.539 545.206 673.793 546.661 L 673.793 546.661 L 673.793 546.661 Q 674.084 549.28 674.666 553.646 L 674.666 553.646 L 674.666 553.646 Q 675.248 558.011 675.248 572.271 L 675.248 572.271 L 675.248 581.73 L 675.248 581.73 Q 675.248 591.625 674.811 596.136 L 674.811 596.136 L 674.811 596.136 Q 674.375 600.646 674.084 603.848 L 674.084 603.848 L 674.084 603.848 Q 673.938 605.594 673.793 607.34 L 673.793 607.34 L 673.793 607.34 Q 675.539 608.795 677.722 608.795 L 677.722 608.795 L 677.722 608.795 Q 681.214 608.795 682.524 603.338 L 682.524 603.338 L 682.524 603.338 Q 683.833 597.882 683.833 583.33 L 683.833 583.33 L 683.833 583.33 Z  M 666.372 671.22 L 629.557 671.22 L 629.557 671.22 Q 613.405 671.22 604.601 662.635 L 604.601 662.635 L 604.601 662.635 Q 595.798 654.05 595.798 636.734 L 595.798 636.734 L 595.798 505.772 L 595.798 505.772 Q 595.798 494.713 617.989 487.074 L 617.989 487.074 L 617.989 487.074 Q 640.179 479.434 667.536 479.434 L 667.536 479.434 L 667.536 479.434 Q 715.701 479.434 742.766 502.716 L 742.766 502.716 L 742.766 502.716 Q 771.869 527.744 771.869 577.364 L 771.869 577.364 L 771.869 577.364 Q 771.869 622.037 743.712 646.629 L 743.712 646.629 L 743.712 646.629 Q 715.555 671.22 666.372 671.22 L 666.372 671.22 L 666.372 671.22 Z  M 832.111 626.839 L 832.111 626.839 L 832.111 626.839 Q 836.185 626.839 836.185 622.328 L 836.185 622.328 L 836.185 622.328 Q 804.027 600.937 787.075 569.798 L 787.075 569.798 L 787.075 569.798 Q 770.122 538.658 768.085 501.116 L 768.085 501.116 L 768.085 501.116 Q 774.633 491.366 787.657 486.128 L 787.657 486.128 L 787.657 486.128 Q 800.68 480.889 814.504 480.889 L 814.504 480.889 L 814.504 480.889 Q 832.693 480.889 845.789 488.019 L 845.789 488.019 L 845.789 488.019 Q 853.938 509.992 859.176 529.927 L 859.176 529.927 L 859.176 529.927 Q 852.046 561.358 852.046 561.358 L 852.046 561.358 L 852.046 561.358 Q 851.464 563.541 851.464 565.432 L 851.464 565.432 L 851.464 565.432 Q 851.464 570.38 856.703 570.38 L 856.703 570.38 L 856.703 570.38 Q 858.449 564.85 864.851 536.912 L 864.851 536.912 L 864.851 536.912 Q 866.452 529.782 869.144 517.049 L 869.144 517.049 L 869.144 517.049 Q 871.836 504.317 876.056 487.001 L 876.056 487.001 L 876.056 487.001 Q 889.443 480.598 906.614 480.598 L 906.614 480.598 L 906.614 480.598 Q 927.422 480.598 939.79 490.711 L 939.79 490.711 L 939.79 490.711 Q 952.159 500.825 952.159 519.887 L 952.159 519.887 L 952.159 519.887 Q 952.159 547.825 936.444 574.309 L 936.444 574.309 L 936.444 574.309 Q 924.075 595.262 903.703 613.452 L 903.703 613.452 L 903.703 661.471 L 903.703 661.471 Q 891.626 668.892 882.022 671.293 L 882.022 671.293 L 882.022 671.293 Q 872.418 673.694 861.796 673.694 L 861.796 673.694 L 861.796 673.694 Q 841.715 673.694 830.219 666.127 L 830.219 666.127 L 830.219 666.127 Q 818.724 658.561 818.724 643.573 L 818.724 643.573 L 818.724 617.962 L 818.724 617.962 Q 821.343 620.582 825.417 623.71 L 825.417 623.71 L 825.417 623.71 Q 829.492 626.839 832.111 626.839 Z " fill="rgb(199,243,197)"/><path d=" M 359.485 480.744 L 359.485 480.744 L 359.485 480.744 Q 376.947 480.744 389.752 490.202 L 389.752 490.202 L 389.752 490.202 Q 402.557 499.66 402.557 517.122 L 402.557 517.122 L 402.557 598.027 L 402.557 598.027 Q 402.557 634.987 380.002 654.996 L 380.002 654.996 L 380.002 654.996 Q 357.448 675.004 317.65 675.004 L 317.65 675.004 L 317.65 675.004 Q 277.852 675.004 255.734 655.359 L 255.734 655.359 L 255.734 655.359 Q 233.18 635.715 233.18 598.027 L 233.18 598.027 L 233.18 494.276 L 233.18 494.276 Q 250.35 480.598 272.905 480.598 L 272.905 480.598 L 272.905 480.598 Q 291.821 480.598 302.88 490.566 L 302.88 490.566 L 302.88 490.566 Q 313.939 500.534 313.939 520.76 L 313.939 520.76 L 313.939 605.594 L 313.939 605.594 Q 315.54 606.758 317.65 606.758 L 317.65 606.758 L 317.65 606.758 Q 319.76 606.758 320.706 605.667 L 320.706 605.667 L 320.706 605.667 Q 321.652 604.575 321.652 601.52 L 321.652 601.52 L 321.652 520.614 L 321.652 520.614 Q 321.652 511.447 320.779 506.063 L 320.779 506.063 L 320.779 506.063 Q 319.905 500.679 317.286 495.295 L 317.286 495.295 L 317.286 495.295 Q 334.748 480.744 359.485 480.744 Z " fill="rgb(255,255,255)"/><path d=" M 133.794 596.281 L 133.794 614.179 L 133.794 614.179 Q 134.376 614.616 137.141 614.616 L 137.141 614.616 L 137.141 614.616 Q 139.906 614.616 141.361 612.724 L 141.361 612.724 L 141.361 612.724 Q 142.816 610.832 142.816 606.03 L 142.816 606.03 L 142.816 603.266 L 142.816 603.266 Q 142.816 597.882 141.579 595.553 L 141.579 595.553 L 141.579 595.553 Q 140.343 593.225 137.505 593.225 L 137.505 593.225 L 137.505 593.225 Q 134.668 593.225 133.649 593.807 L 133.649 593.807 L 133.649 593.807 Q 133.794 594.535 133.794 596.281 L 133.794 596.281 L 133.794 596.281 Z  M 133.794 542.878 L 133.794 559.321 L 133.794 559.321 Q 134.376 559.757 137.141 559.757 L 137.141 559.757 L 137.141 559.757 Q 139.906 559.757 141.361 557.575 L 141.361 557.575 L 141.361 557.575 Q 142.816 555.392 142.816 550.444 L 142.816 550.444 L 142.816 549.571 L 142.816 549.571 Q 142.816 544.333 141.579 542.077 L 141.579 542.077 L 141.579 542.077 Q 140.343 539.822 137.505 539.822 L 137.505 539.822 L 137.505 539.822 Q 134.668 539.822 133.649 540.404 L 133.649 540.404 L 133.649 540.404 Q 133.794 541.132 133.794 542.878 L 133.794 542.878 L 133.794 542.878 Z  M 54.781 636.734 L 54.781 503.298 L 54.781 503.298 Q 54.781 499.951 60.31 495.732 L 60.31 495.732 L 60.31 495.732 Q 71.951 486.855 101.345 481.908 L 101.345 481.908 L 101.345 481.908 Q 116.624 479.434 134.959 479.434 L 134.959 479.434 L 134.959 479.434 Q 178.612 479.434 201.021 496.314 L 201.021 496.314 L 201.021 496.314 Q 220.666 511.156 220.666 535.311 L 220.666 535.311 L 220.666 535.311 Q 220.666 544.042 217.61 552.409 L 217.61 552.409 L 217.61 552.409 Q 214.554 560.776 208.879 564.996 L 208.879 564.996 L 208.879 564.996 Q 201.167 561.067 194.037 561.067 L 194.037 561.067 L 194.037 561.067 Q 190.69 561.067 188.944 562.377 L 188.944 562.377 L 188.944 562.377 Q 187.198 563.686 187.198 567.178 L 187.198 567.178 L 187.198 567.178 Q 208.588 568.052 220.52 582.603 L 220.52 582.603 L 220.52 582.603 Q 231.143 595.845 231.143 615.489 L 231.143 615.489 L 231.143 615.489 Q 231.143 645.901 205.678 659.725 L 205.678 659.725 L 205.678 659.725 Q 181.814 672.675 133.794 672.675 L 133.794 672.675 L 133.794 672.675 Q 100.181 672.675 84.466 670.565 L 84.466 670.565 L 84.466 670.565 Q 68.75 668.455 61.766 660.598 L 61.766 660.598 L 61.766 660.598 Q 54.781 652.74 54.781 636.734 L 54.781 636.734 L 54.781 636.734 Z " fill="rgb(199,243,197)"/><g><g><path d=" M 257.87 531.784 C 236.224 522.923 219.947 505.306 209.023 488.918 C 204.519 482.159 200.924 479.759 198.239 471.717 C 197.205 468.617 196.305 465.422 195.54 462.132" fill="rgb(0,0,0)" fill-opacity="0.13" vector-effect="non-scaling-stroke" stroke-width="30" stroke="rgb(238,169,184)" stroke-linejoin="miter" stroke-linecap="square" stroke-miterlimit="3"/><path d=" M 149.845 437.264 C 181.896 443.482 207.082 437.542 225.341 419.384" fill="none" vector-effect="non-scaling-stroke" stroke-width="30" stroke="rgb(238,169,184)" stroke-linejoin="miter" stroke-linecap="round" stroke-miterlimit="3"/></g><g><path d=" M 365.154 526.784 C 399.168 512.861 419.925 489.663 427.484 457.132" fill="none" vector-effect="non-scaling-stroke" stroke-width="30" stroke="rgb(238,169,184)" stroke-linejoin="miter" stroke-linecap="square" stroke-miterlimit="3"/><path d=" M 473.179 437.264 C 457.154 440.373 442.845 440.443 430.259 437.465 C 417.674 434.487 406.813 428.463 397.683 419.384" fill="none" vector-effect="non-scaling-stroke" stroke-width="30" stroke="rgb(238,169,184)" stroke-linejoin="miter" stroke-linecap="round" stroke-miterlimit="3"/></g><path d=" M 361.076 483.6 Q 385.813 483.6 361.076 483.6 L 361.076 483.6 Q 378.537 483.6 391.343 493.058 L 391.343 493.058 L 391.343 493.058 Q 404.148 502.516 404.148 519.978 L 404.148 519.978 L 404.148 600.883 L 404.148 600.883 Q 404.148 637.843 381.593 657.851 L 381.593 657.851 L 381.593 657.851 Q 359.039 677.859 319.241 677.859 L 319.241 677.859 L 319.241 677.859 Q 279.443 677.859 257.325 658.215 L 257.325 658.215 L 257.325 658.215 Q 234.771 638.571 234.771 600.883 L 234.771 600.883 L 234.771 497.132 L 234.771 497.132 Q 251.941 483.454 274.496 483.454 L 274.496 483.454 L 274.496 483.454 Q 293.412 483.454 304.471 493.422 L 304.471 493.422 L 304.471 493.422 Q 315.53 503.389 315.53 523.616 L 315.53 523.616 L 315.53 608.45 L 315.53 608.45 Q 317.131 609.614 319.241 609.614 L 319.241 609.614 L 319.241 609.614 Q 321.351 609.614 322.297 608.523 L 322.297 608.523 L 322.297 608.523 Q 323.243 607.431 323.243 604.375 L 323.243 604.375 L 323.243 523.47 L 323.243 523.47 Q 323.243 514.303 322.369 508.919 L 322.369 508.919 L 322.369 508.919 Q 321.496 503.535 318.877 498.151 L 318.877 498.151 L 318.877 498.151 Q 336.339 483.6 361.076 483.6 Z " fill="rgb(238,169,184)"/></g></g></g></svg>