<svg id="visual" viewBox="0 0 450 900" width="450" height="900" xmlns="http://www.w3.org/2000/svg" xmlns:xlink="http://www.w3.org/1999/xlink" version="1.1"><path d="M0 118L25 160C50 202 100 286 150 335.5C200 385 250 400 300 400C350 400 400 385 425 377.5L450 370L450 0L425 0C400 0 350 0 300 0C250 0 200 0 150 0C100 0 50 0 25 0L0 0Z" fill="#f4958e"></path><path d="M0 568L25 554.5C50 541 100 514 150 533.5C200 553 250 619 300 641.5C350 664 400 643 425 632.5L450 622L450 368L425 375.5C400 383 350 398 300 398C250 398 200 383 150 333.5C100 284 50 200 25 158L0 116Z" fill="#ec746e"></path><path d="M0 874L25 842.5C50 811 100 748 150 727C200 706 250 727 300 733C350 739 400 730 425 725.5L450 721L450 620L425 630.5C400 641 350 662 300 639.5C250 617 200 551 150 531.5C100 512 50 539 25 552.5L0 566Z" fill="#d45855"></path><path d="M0 901L25 901C50 901 100 901 150 901C200 901 250 901 300 901C350 901 400 901 425 901L450 901L450 719L425 723.5C400 728 350 737 300 731C250 725 200 704 150 725C100 746 50 809 25 840.5L0 872Z" fill="#ae4441"></path></svg>